<?xml version="1.0" encoding="utf-8"?>
<!-- Generator: Adobe Illustrator 25.0.1, SVG Export Plug-In . SVG Version: 6.00 Build 0)  -->
<svg version="1.1" id="Layer_1" xmlns="http://www.w3.org/2000/svg" xmlns:xlink="http://www.w3.org/1999/xlink" x="0px" y="0px"
	 viewBox="0 0 372 372.2" style="enable-background:new 0 0 372 372.2;" xml:space="preserve">
<style type="text/css">
	.st0{fill-rule:evenodd;clip-rule:evenodd;fill:#FFFFFF;}
</style>
<path class="st0" d="M330.8,52.5c-0.2-1.7-0.5-3.5-0.8-5.2c-3.4-7.9-8-15.9-12.8-22.5c-2-1.7-4-3.5-6-5.2c-1-1.2-2-2.5-3-3.8
	c-0.5,0-1,0-1.5,0c-0.5-0.7-1-1.5-1.5-2.2c-0.5,0-1,0-1.5,0c-0.2-0.5-0.5-1-0.8-1.5c-0.5,0-1,0-1.5,0c-0.2-0.5-0.5-1-0.8-1.5
	c-0.5,0-1,0-1.5,0c-0.2-0.5-0.5-1-0.8-1.5c-1-0.2-2-0.5-3-0.8c0-0.2,0-0.5,0-0.8c-1-0.2-2-0.5-3-0.8c0-0.2,0-0.5,0-0.8
	c-0.7,0-1.5,0-2.2,0c0-0.2,0-0.5,0-0.8c-0.5,0-1,0-1.5,0c0-0.2,0-0.5,0-0.8c-1.5-0.2-3-0.5-4.5-0.8c0-0.2,0-0.5,0-0.8
	c-0.7,0-1.5,0-2.2,0c0-0.2,0-0.5,0-0.8c-1,0-2,0-3,0c0-0.2,0-0.5,0-0.8c-1.5,0-3,0-4.5,0c0-0.2,0-0.5,0-0.8c-2.5,0-5,0-7.5,0
	c0-0.2,0-0.5,0-0.8c-1.7,0-3.5,0-5.2,0c0,0.2,0,0.5,0,0.8c-2.7,0-5.5,0-8.2,0c0,0.2,0,0.5,0,0.8c-1.2,0-2.5,0-3.8,0
	c0,0.2,0,0.5,0,0.8c-1,0-2,0-3,0c0,0.2,0,0.5,0,0.8c-1,0-2,0-3,0c0,0.2,0,0.5,0,0.8c-0.7,0-1.5,0-2.2,0c0,0.2,0,0.5,0,0.8
	c-0.7,0-1.5,0-2.2,0c0,0.2,0,0.5,0,0.8c-1,0.2-2,0.5-3,0.8c0,0.2,0,0.5,0,0.8c-0.7,0-1.5,0-2.2,0c-0.2,0.5-0.5,1-0.8,1.5
	c-0.5,0-1,0-1.5,0c0,0.2,0,0.5,0,0.8c-1.5,0.5-3,1-4.5,1.5c-0.2,0.5-0.5,1-0.8,1.5c-0.5,0-1,0-1.5,0c-0.5,0.7-1,1.5-1.5,2.2
	c-0.5,0-1,0-1.5,0c-0.7,1-1.5,2-2.2,3c-0.5,0-1,0-1.5,0c-3,3.2-6,6.5-9,9.8c-0.5,0.2-1,0.5-1.5,0.8c-3.7,4-7.5,8-11.2,12
	c-2.1,2.1-5.1,3.4-6,6.8c-1.8,0.5-1.4,0.2-2.2,1.5c-7.1-0.2-8.4-4.7-12-8.2c-5.5-5.2-11-10.5-16.5-15.7c-2.2-2.5-4.5-5-6.8-7.5
	c-0.5,0-1,0-1.5,0c-0.7-1-1.5-2-2.2-3c-0.5,0-1,0-1.5,0c-0.2-0.5-0.5-1-0.8-1.5c-0.7-0.2-1.5-0.5-2.2-0.8c0-0.2,0-0.5,0-0.8
	c-1-0.2-2-0.5-3-0.8c-0.2-0.5-0.5-1-0.8-1.5c-2.2-0.7-4.5-1.5-6.8-2.2c0-0.2,0-0.5,0-0.8c-0.5,0-1,0-1.5,0c0-0.2,0-0.5,0-0.8
	c-0.7,0-1.5,0-2.2,0c0-0.2,0-0.5,0-0.8c-0.7,0-1.5,0-2.2,0c0-0.2,0-0.5,0-0.8c-0.7,0-1.5,0-2.2,0c0-0.2,0-0.5,0-0.8
	c-4.7-0.7-9.5-1.5-14.2-2.2c-2.7,0-5.5,0-8.2,0c0,0.2,0,0.5,0,0.8c-2.2,0-4.5,0-6.8,0c-6,1.7-12.3,3.4-17.2,6c-0.5,0-1,0-1.5,0
	c0,0.2,0,0.5,0,0.8c-0.5,0-1,0-1.5,0c0,0.2,0,0.5,0,0.8c-0.5,0-1,0-1.5,0c0,0.2,0,0.5,0,0.8c-0.5,0-1,0-1.5,0
	c-0.2,0.5-0.5,1-0.8,1.5c-1,0.2-2,0.5-3,0.8c-0.5,0.7-1,1.5-1.5,2.2c-0.5,0-1,0-1.5,0c-0.5,0.7-1,1.5-1.5,2.2c-0.5,0-1,0-1.5,0
	c-1,1.2-2,2.5-3,3.8c-2,1.7-4,3.5-6,5.2c0,0.5,0,1,0,1.5c-1,0.7-2,1.5-3,2.2c0,0.5,0,1,0,1.5c-0.5,0.2-1,0.5-1.5,0.8
	c0,0.5,0,1,0,1.5c-0.5,0.2-1,0.5-1.5,0.8c-0.5,1.5-1,3-1.5,4.5c-0.2,0-0.5,0-0.8,0c0,0.5,0,1,0,1.5c-0.2,0-0.5,0-0.8,0
	c-0.5,1.5-1,3-1.5,4.5c-0.2,0-0.5,0-0.8,0c0,0.7,0,1.5,0,2.2c-0.2,0-0.5,0-0.8,0c0,0.5,0,1,0,1.5c-0.2,0-0.5,0-0.8,0c0,1,0,2,0,3
	c-0.2,0-0.5,0-0.8,0c0,0.7,0,1.5,0,2.2c-0.2,0-0.5,0-0.8,0c0,1.2,0,2.5,0,3.8c-0.2,0-0.5,0-0.8,0c-0.8,2.7-1.8,20.4-0.8,24
	c0.2,0,0.5,0,0.8,0c0,1.5,0,3,0,4.5c0.2,0,0.5,0,0.8,0c0,1,0,2,0,3c0.2,0,0.5,0,0.8,0c0.2,1.7,0.5,3.5,0.8,5.2c0.2,0,0.5,0,0.8,0
	c0.2,1.2,0.5,2.5,0.8,3.8c0.2,0,0.5,0,0.8,0c0,0.5,0,1,0,1.5c0.2,0,0.5,0,0.8,0c0,0.7,0,1.5,0,2.2c0.2,0,0.5,0,0.8,0
	c0,0.5,0,1,0,1.5c0.2,0,0.5,0,0.8,0c0,0.5,0,1,0,1.5c0.5,0.2,1,0.5,1.5,0.8c0.2,1,0.5,2,0.8,3c0.2,0,0.5,0,0.8,0
	c0.2,0.7,0.5,1.5,0.8,2.2c0.5,0.2,1,0.5,1.5,0.8c0,0.5,0,1,0,1.5c0.7,0.5,1.5,1,2.2,1.5c0,0.5,0,1,0,1.5c5,4.7,10,9.5,15,14.2
	c6.4,8.9,14.9,15.6,22.5,23.2c29.5,30,59,60,88.5,90c1.2,0.2,2.5,0.5,3.8,0.8c0,0.2,0,0.5,0,0.8c9.5-0.1,11.8-5.8,16.5-10.5
	c6.7-6.5,13.5-13,20.2-19.5c2.7-3,5.5-6,8.2-9c21.2-21.5,42.5-43,63.8-64.5c5.7-5.7,11.7-10.6,16.5-17.2c3-2.7,6-5.5,9-8.2
	c0-0.5,0-1,0-1.5c0.7-0.5,1.5-1,2.2-1.5c0-0.5,0-1,0-1.5c0.5-0.2,1-0.5,1.5-0.8c0-0.5,0-1,0-1.5c0.5-0.2,1-0.5,1.5-0.8
	c0.2-1,0.5-2,0.8-3c0.5-0.2,1-0.5,1.5-0.8c0-0.5,0-1,0-1.5c0.2,0,0.5,0,0.8,0c0-0.5,0-1,0-1.5c0.2,0,0.5,0,0.8,0
	C332.3,88.7,335.8,67.6,330.8,52.5z M253.5,127.5c-2.3,1.5-7.8,0.7-11.2,0.7c-7.7,0-15.5,0-23.2,0c-4.4,0-8.6,0.3-11.2-1.5
	c0-0.2,0-0.5,0-0.8c-0.7-0.5-1.5-1-2.2-1.5c0-0.5,0-1,0-1.5c-0.2,0-0.5,0-0.8,0c-1.4-2.6-1.7-5.6-3.8-7.5c-0.5-1.5,0.1-0.6-0.8-1.5
	c-2,7.2-4,14.5-6,21.7c-1.2,1-2.5,2-3.8,3c0,0.2,0,0.5,0,0.8c-1.2,0.7-6.1,1.5-8.2,0.8c0-0.2,0-0.5,0-0.8c-0.5,0-1,0-1.5,0
	c0-0.2,0-0.5,0-0.8c-0.7-0.2-1.5-0.5-2.2-0.8c-0.2-0.7-0.5-1.5-0.8-2.2c-0.2,0-0.5,0-0.8,0c0-0.5,0-1,0-1.5c-0.2,0-0.5,0-0.8,0
	c-0.2-1.5-0.5-3-0.8-4.5c-0.2,0-0.5,0-0.8,0c0-0.5,0-1,0-1.5c-0.2,0-0.5,0-0.8,0c0-0.7,0-1.5,0-2.2c-0.2,0-0.5,0-0.8,0
	c0-0.7,0-1.5,0-2.2c-0.2,0-0.5,0-0.8,0c0-0.5,0-1,0-1.5c-0.2,0-0.5,0-0.8,0c-0.2-1.5-0.5-3-0.8-4.5c-0.2,0-0.5,0-0.8,0
	c0-0.5,0-1,0-1.5c-0.2,0-0.5,0-0.8,0c0-0.7,0-1.5,0-2.2c-0.8-2-2-3.2-2.2-6c-0.2,0-0.5,0-0.8,0c-0.2,0.7-0.5,1.5-0.8,2.2
	c-0.2,0-0.5,0-0.8,0c0,0.7,0,1.5,0,2.2c-0.2,0-0.5,0-0.8,0c0,0.5,0,1,0,1.5c-0.2,0-0.5,0-0.8,0c0,0.7,0,1.5,0,2.2
	c-0.2,0-0.5,0-0.8,0c0,0.5,0,1,0,1.5c-0.2,0-0.5,0-0.8,0c0,0.7,0,1.5,0,2.2c-0.2,0-0.5,0-0.8,0c-0.5,1.5-1,3-1.5,4.5
	c-0.2,0-0.5,0-0.8,0c-0.5,0.7-1,1.5-1.5,2.2c-1,0.2-2,0.5-3,0.8c0,0.2,0,0.5,0,0.7c-8,0-16,0-24,0c-3.5,0-7,0-10.5,0
	c0-0.2,0-0.5,0-0.7c-0.5,0-1,0-1.5,0c-0.3-0.2-0.7-1.1-1.5-1.5c-0.8-2-2.1-5-0.8-7.5c0.5-0.2,1-0.5,1.5-0.8c0.2-0.5,0.5-1,0.8-1.5
	c3.2-0.2,6.5-0.5,9.8-0.8c7.2,0,14.5,0,21.8,0c0.9-3.8,3.1-7.3,4.5-10.5c0-0.7,0-1.5,0-2.2c0.2,0,0.5,0,0.8,0c0-0.5,0-1,0-1.5
	c0.2,0,0.5,0,0.8,0c0.7-2.5,1.5-5,2.2-7.5c0.2,0,0.5,0,0.8,0c0.7-1,1.5-2,2.2-3c3.2-0.7,4.3-2,7.5-0.8c1.9,0.7,0.8-0.7,2.2,0.8
	c4.2,1.1,3,2.7,4.5,6c0.2,0,0.5,0,0.8,0c0,0.5,0,1,0,1.5c0.2,0,0.5,0,0.8,0c0.2,1.5,0.5,3,0.8,4.5c0.2,0,0.5,0,0.8,0
	c0,0.5,0,1,0,1.5c0.2,0,0.5,0,0.8,0c0.2,1.5,0.5,3,0.8,4.5c0.2,0,0.5,0,0.8,0c0,0.5,0,1,0,1.5c0.2,0,0.5,0,0.8,0
	c0.2,1.5,0.5,3,0.8,4.5c0.2,0,0.5,0,0.8,0c0.9,1.9,1.3,3.7,1.5,6c0.2,0,0.5,0,0.8,0c1-3,2-6,3-9c0-0.7,0-1.5,0-2.2
	c0.2,0,0.5,0,0.8,0c0.2-1.7,0.5-3.5,0.8-5.2c0.2,0,0.5,0,0.8,0c0-1,0-2,0-3c1.2-1.5,2.5-3,3.8-4.5c2.1-0.4,7.1-1.8,9,0
	c2.3,0.6,2.5,1.5,3.8,3c0.2,0,0.5,0,0.8,0c0.5,1.5,1,3,1.5,4.5c1.9,3.6,4.4,7.3,6,11.2c9,0,18,0,27,0c4.1,0,9.2-0.6,11.2,1.5
	c1.1,0.7,1.7,1,2.2,2.2c0,0.5,0,1,0,1.5c0.2,0,0.5,0,0.8,0C256.3,123.4,255.1,126.4,253.5,127.5z"/>
<path class="st0" d="M102.8,275.2c55.5,0,111,0,166.5,0c0-16.2,0-32.5,0-48.8c0-9.4-0.7-17.5,6.8-19.5c1.4-1.7,1.6-0.7,3.8-1.5
	c0-0.2,0-0.5,0-0.8c5.7,0,11.5,0,17.2,0c0,0.2,0,0.5,0,0.8c0.7,0,1.5,0,2.2,0c0,0.2,0,0.5,0,0.8c0.7,0,1.5,0,2.2,0
	c0,0.2,0,0.5,0,0.8c1.5,1.2,3,2.5,4.5,3.8c0.9,1.3,0,1.7,1.5,3c0,12.7,0,25.5,0,38.2c0.2,0,0.5,0,0.8,0c0-0.5,0-1,0-1.5
	c2.2-1.5,0.3-0.7,1.5-2.2c1-0.7,2-1.5,3-2.2c0-0.2,0-0.5,0-0.8c1-0.2,2-0.5,3-0.8c0-0.2,0-0.5,0-0.8c3.2-0.2,6.5-0.5,9.8-0.8
	c23,0,21.3,10,21,32.2c6.7,0,13.5,0,20.2,0c0,0.2,0,0.5,0,0.8c1,0.2,2,0.5,3,0.8c0.2,0.7,0.5,1.5,0.8,2.2c0.2,0,0.5,0,0.8,0
	c0,0.5,0,1,0,1.5c0.2,0,0.5,0,0.8,0c0,5.2,0,10.5,0,15.8c-0.2,0-0.5,0-0.8,0c-0.2,1-0.5,2-0.8,3c-0.7,0.2-1.5,0.5-2.2,0.8
	c0,0.2,0,0.5,0,0.8c-0.5,0-1,0-1.5,0c0,0.2,0,0.5,0,0.8c-6.7,0-13.5,0-20.2,0c0.1,8.3,1,21.3-2.2,26.2c-0.2,0-0.5,0-0.8,0
	c-1,1.2-2,2.5-3,3.8c-1.3,0.9-1.7,0-3,1.5c-7.8,0-16.6-0.1-23.2-0.8c0-0.2,0-0.5,0-0.8c-0.7-0.2-1.5-0.5-2.2-0.8
	c-1.6-1.2-3.2-4.4-3.8-6.8c-0.2,0-0.5,0-0.8,0c0,13,0,26,0,39c-1.4,1.2-1.8,3.2-3,4.5c-1.7,1.2-3.5,2.5-5.2,3.8
	c-10.5,0.7-26,2.8-28.5-6.8c-2.7-2.8-1.5-12-1.5-17.2c0-15.2,0-30.5,0-45.8c-55.5,0-111,0-166.5,0c0,20.2,0,40.5,0,60.8
	c-0.2,0-0.5,0-0.8,0c-0.2,1.2-0.5,2.5-0.8,3.8c-1.2,1-2.5,2-3.8,3c0,0.2,0,0.5,0,0.8c-1,0.2-2,0.5-3,0.8c0,0.2,0,0.5,0,0.8
	c-3.1,1.2-18.7,1.2-21.8,0c0-0.2,0-0.5,0-0.8c-0.5,0-1,0-1.5,0c-1.7-1.5-3.5-3-5.2-4.5c-0.9-1.3,0-1.7-1.5-3c0-13,0-26,0-39
	c-0.2,0-0.5,0-0.8,0c0,0.5,0,1,0,1.5c-1.2,1.7-2.5,3.5-3.8,5.2c-0.5,0-1,0-1.5,0c-0.2,0.5-0.5,1-0.8,1.5c-3.8,2-12.1,0.8-17.2,0.8
	c-2,0-4,0-6,0c0-0.2,0-0.5,0-0.8c-0.5,0-1,0-1.5,0c-1.6-0.8-2.6-2.5-3.8-3.8c-0.5-0.2-1-0.5-1.5-0.8c-0.9-1.3,0-1.7-1.5-3
	c0-1.2,0-2.5,0-3.8c-0.2,0-0.5,0-0.8,0c0-6.5,0-13,0-19.5c-6.7,0-13.5,0-20.2,0c0-0.2,0-0.5,0-0.8c-1-0.2-2-0.5-3-0.8
	c-0.2-0.7-0.5-1.5-0.8-2.2c-0.2,0-0.5,0-0.8,0c0-0.5,0-1,0-1.5c-0.2,0-0.5,0-0.8,0c0-5.2,0-10.5,0-15.8c0.2,0,0.5,0,0.8,0
	c0.2-1,0.5-2,0.8-3c0.7-0.2,1.5-0.5,2.2-0.8c0-0.2,0-0.5,0-0.8c0.5,0,1,0,1.5,0c0-0.2,0-0.5,0-0.8c6.7,0,13.5,0,20.2,0
	c-0.4-22.3-1.9-32.3,21-32.2c3.2,0.2,6.5,0.5,9.8,0.8c0,0.2,0,0.5,0,0.8c0.5,0,1,0,1.5,0c1.5,1.2,3,2.5,4.5,3.8c0,0.5,0,1,0,1.5
	c0.5,0.2,1,0.5,1.5,0.8c0,0.7,0,1.5,0,2.2c0.2,0,0.5,0,0.8,0c0-13,0-26,0-39c0.2,0,0.5,0,0.8,0c0-0.5,0-1,0-1.5
	c1-1.9,3.4-4.2,5.2-5.2c0-0.2,0-0.5,0-0.8c1.5-0.2,3-0.5,4.5-0.8c0-0.2,0-0.5,0-0.8c5.7,0,11.5,0,17.2,0c0,0.2,0,0.5,0,0.8
	c0.7,0,1.5,0,2.2,0c0,0.2,0,0.5,0,0.8c1,0.2,2,0.5,3,0.8c0.2,0.5,0.5,1,0.8,1.5c1.3,1.2,2.9,2.2,3.8,3.8c0,0.5,0,1,0,1.5
	c0.2,0,0.5,0,0.8,0C102.8,234.2,102.8,254.8,102.8,275.2z"/>
</svg>
